<?xml version="1.0" standalone="no"?>
<!DOCTYPE svg PUBLIC "-//W3C//DTD SVG 20010904//EN"
 "http://www.w3.org/TR/2001/REC-SVG-20010904/DTD/svg10.dtd">
<svg version="1.0" xmlns="http://www.w3.org/2000/svg"
 width="1454.000000pt" height="1454.000000pt" viewBox="0 0 1454.000000 1454.000000"
 preserveAspectRatio="xMidYMid meet">
<metadata>
Created by potrace 1.11, written by Peter Selinger 2001-2013
</metadata>
<g transform="translate(0.000000,1454.000000) scale(0.100000,-0.100000)"
fill="#000000" stroke="none">
<path d="M3002 12604 c-172 -344 -312 -628 -310 -629 2 -2 30 11 63 28 l60 32
278 553 277 552 833 1 832 0 85 44 85 44 -945 0 -945 1 -313 -626z"/>
<path d="M9505 13187 l80 -42 839 -5 840 -5 275 -550 276 -550 60 -32 c33 -18
63 -33 67 -33 4 0 -135 284 -308 630 l-316 630 -946 0 -947 -1 80 -42z"/>
<path d="M13210 9345 l0 -101 475 -949 c261 -523 475 -956 475 -963 0 -6 -214
-440 -475 -963 l-476 -950 3 -95 3 -94 526 1052 526 1053 -528 1055 -528 1055
-1 -100z"/>
<path d="M891 8381 l-525 -1049 527 -1053 527 -1054 0 101 0 102 -477 953
-476 952 477 956 478 956 -4 93 -3 92 -524 -1049z"/>
<path d="M4505 8470 c-86 -10 -143 -28 -201 -61 -117 -66 -207 -177 -247 -303
l-22 -71 0 -1225 0 -1225 22 -71 c52 -163 183 -295 343 -345 64 -20 86 -20
1078 -19 978 1 1015 1 1076 20 153 48 284 179 339 340 l22 65 3 1185 c2 784
-1 1212 -7 1264 -26 193 -160 355 -352 424 l-74 26 -960 2 c-528 1 -987 -1
-1020 -6z m1755 -1660 l0 -1080 -785 0 -785 0 0 1080 0 1080 785 0 785 0 0
-1080z"/>
<path d="M7958 8473 c-17 -4 -18 -27 -18 -294 l0 -289 227 -2 227 -3 -227
-180 -226 -180 0 -1190 -1 -1190 1222 2 c1186 3 1225 3 1288 23 152 45 277
164 341 325 l24 60 3 530 c3 588 1 625 -55 736 -70 140 -221 257 -354 275
l-49 7 0 461 c0 499 -2 521 -55 626 -36 71 -143 181 -212 218 -134 70 -62 66
-1143 68 -536 1 -983 0 -992 -3z m1742 -973 l0 -390 -404 0 -403 0 -144 -190
c-79 -104 -147 -190 -151 -190 -10 0 -11 1144 -1 1153 3 4 253 7 555 7 l548 0
0 -390z m460 -1375 l0 -395 -782 2 -783 3 -3 393 -2 392 785 0 785 0 0 -395z"/>
<path d="M11880 2665 l-65 -33 -275 -551 -275 -551 -830 -1 -830 0 -85 -44
-85 -44 942 0 943 -1 315 630 c173 347 314 630 313 630 -2 -1 -32 -16 -68 -35z"/>
<path d="M2693 2683 c2 -5 142 -286 311 -625 l308 -618 942 0 941 1 -80 42
-80 42 -834 5 -835 5 -272 545 -272 545 -58 32 c-59 33 -78 39 -71 26z"/>
</g>
</svg>
